<svg width="37" height="37" viewBox="0 0 37 37" fill="none" xmlns="http://www.w3.org/2000/svg">
<circle cx="33.0571" cy="25.0059" r="1.38374" fill="black"/>
<circle cx="34.363" cy="20.8752" r="1.38374" fill="black"/>
<circle cx="32.4074" cy="9.73747" r="1.38374" fill="black"/>
<circle cx="16.5207" cy="1.52264" r="1.38374" fill="black"/>
<circle cx="12.3032" cy="2.48758" r="1.38374" fill="black"/>
<circle cx="8.47993" cy="4.51294" r="1.38374" fill="black"/>
<circle cx="2.09615" cy="13.6849" r="1.38374" fill="black"/>
<circle cx="3.10933" cy="25.0612" r="1.38374" fill="black"/>
<circle cx="25.0534" cy="32.9949" r="1.38374" fill="black"/>
<path d="M33.2622 18.0757C33.2661 16.3074 32.9605 14.5161 32.3175 12.7805L34.8489 11.8364C35.6067 13.8786 35.9676 15.9863 35.9644 18.0671L33.2622 18.0757Z" fill="black"/>
<path d="M29.6906 8.25465C28.5535 6.90042 27.1651 5.72814 25.5545 4.81594L26.881 2.46221C28.7768 3.53475 30.4115 4.91325 31.7507 6.50587L29.6906 8.25465Z" fill="black"/>
<path d="M24.4705 4.25367C22.8683 3.5054 21.115 3.02815 19.2699 2.88041L19.4798 0.186795C21.6512 0.359586 23.7148 0.919963 25.6007 1.79913L24.4705 4.25367Z" fill="black"/>
<path d="M7.28566 7.27338C6.03284 8.52128 4.98265 10.0042 4.21047 11.6865L1.75263 10.5646C2.66036 8.58449 3.89512 6.83869 5.36831 5.36919L7.28566 7.27338Z" fill="black"/>
<path d="M2.86983 16.7343C2.71549 18.4958 2.86757 20.3066 3.36065 22.0907L0.758024 22.816C0.176744 20.7167 -0.00347804 18.586 0.176657 16.513L2.86983 16.7343Z" fill="black"/>
<path d="M5.54241 26.7512C6.5517 28.2031 7.8279 29.4967 9.34896 30.5515L7.81408 32.775C6.0235 31.5346 4.52084 30.0133 3.33196 28.3055L5.54241 26.7512Z" fill="black"/>
<path d="M10.3903 31.2175C11.9187 32.1067 13.6221 32.7396 15.4465 33.0526L14.9953 35.7164C12.8483 35.3492 10.8434 34.6056 9.04408 33.5605L10.3903 31.2175Z" fill="black"/>
<path d="M16.6718 33.216C18.4329 33.3758 20.2441 33.2294 22.0298 32.7419L22.7469 35.3467C20.6458 35.9215 18.5146 36.095 16.4422 35.9085L16.6718 33.216Z" fill="black"/>
<path d="M26.7536 30.5009C28.2068 29.4934 29.5019 28.2187 30.5585 26.6989L32.7801 28.2365C31.5376 30.0256 30.0144 31.5264 28.3053 32.7132L26.7536 30.5009Z" fill="black"/>
</svg>
