<svg width="54" height="54" viewBox="0 0 54 54" fill="none" xmlns="http://www.w3.org/2000/svg">
<path d="M6.06932 16.8391C4.94083 19.2143 4.21332 21.8169 3.97414 24.5594L0.297607 24.2427C0.574644 21.0548 1.41907 18.0294 2.72952 15.2681L6.06932 16.8391Z" fill="black"/>
<path d="M17.1579 5.92126C14.764 7.00948 12.5301 8.53005 10.5792 10.4724L7.97282 7.8601C10.2397 5.6017 12.8357 3.83328 15.6176 2.56717L17.1579 5.92126Z" fill="black"/>
<path d="M26.6984 3.88276C24.0688 3.8643 21.4026 4.30536 18.8162 5.24811L17.5488 1.78243C20.5549 0.685687 23.6536 0.171818 26.7101 0.191918L26.6984 3.88276Z" fill="black"/>
<path d="M36.2453 6.05767C33.8687 4.93207 31.2652 4.20771 28.5224 3.97187L28.8347 0.294951C32.0229 0.568119 35.0493 1.40887 37.8123 2.71597L36.2453 6.05767Z" fill="black"/>
<path d="M47.1181 17.0055C46.0121 14.6197 44.4751 12.3971 42.5184 10.4606L45.1113 7.83498C47.3864 10.0851 49.174 12.6679 50.4607 15.4404L47.1181 17.0055Z" fill="black"/>
<path d="M48.4337 32.5C49.125 29.9629 49.3814 27.2727 49.1326 24.5311L52.8072 24.1936C53.0975 27.3803 52.8006 30.5073 51.9984 33.4566L48.4337 32.5Z" fill="black"/>
<path d="M28.4466 49.148C31.0672 48.9303 33.683 48.2518 36.1744 47.0807L37.7477 50.4186C34.8522 51.7807 31.8121 52.5707 28.7662 52.825L28.4466 49.148Z" fill="black"/>
<path d="M18.7054 47.825C21.1718 48.737 23.8289 49.2295 26.5818 49.223L26.5944 52.9132C23.3945 52.9216 20.3058 52.3505 17.4386 51.2916L18.7054 47.825Z" fill="black"/>
<path d="M6.861 37.7884C8.16236 40.0734 9.87973 42.1599 11.9914 43.9261L9.62688 46.7592C7.17173 44.707 5.17463 42.2825 3.66083 39.6272L6.861 37.7884Z" fill="black"/>
<circle cx="6.52346" cy="12.4537" r="1.84499" fill="black"/>
<circle cx="40.6558" cy="6.52337" r="1.84499" fill="black"/>
<circle cx="40.5852" cy="46.6353" r="1.84499" fill="black"/>
<circle cx="50.2175" cy="20.2176" r="1.84499" fill="black"/>
<circle cx="48.7871" cy="36.8411" r="1.84499" fill="black"/>
<circle cx="45.3479" cy="42.2679" r="1.84499" fill="black"/>
<circle cx="14.2136" cy="47.7158" r="1.84499" fill="black"/>
<circle cx="3.50979" cy="34.8628" r="1.84499" fill="black"/>
<circle cx="2.14333" cy="28.5984" r="1.84499" fill="black"/>
</svg>
